<svg width="135" height="42" viewBox="0 0 135 42" fill="none" xmlns="http://www.w3.org/2000/svg">
<path fill-rule="evenodd" clip-rule="evenodd" d="M30.9481 23.3285L30.9892 23.2978L30.9889 23.299C31.1543 23.1756 35.0288 20.224 33.4699 15L33.4622 14.9754L33.4405 14.9616C33.3715 14.9186 33.1913 14.8959 32.7543 14.8446C31.6192 14.7125 29.2902 14.4406 26.8419 13.3166C26.7751 13.2862 26.7074 13.2548 26.6406 13.2226C25.4736 12.7249 23.9671 12.018 22.7161 11.4196C21.9668 11.0614 21.3092 10.7425 20.8722 10.5296C20.7998 10.4945 20.7331 10.4621 20.6725 10.4327C20.536 10.3664 20.431 10.3154 20.3635 10.2833C20.0849 10.1502 18.4383 9.59975 16.4169 9.34385C16.1405 9.30821 15.8555 9.27872 15.5674 9.25691C15.4387 9.24708 15.3091 9.23848 15.1789 9.23172C14.9279 9.21851 14.6744 9.21145 14.4201 9.21145C14.2947 9.21145 14.1691 9.21329 14.0434 9.21698C13.991 9.2182 13.9377 9.21974 13.885 9.2225C13.581 9.23541 12.8265 9.29746 12.0101 9.36597L11.9255 9.37303C11.7579 9.38703 11.5879 9.40123 11.4193 9.41543C11.3209 9.42372 11.2228 9.43202 11.1257 9.44C11.0682 9.44471 11.0112 9.44938 10.9547 9.45401C10.7417 9.47147 10.5364 9.4883 10.3458 9.50359C10.0341 9.52817 9.76227 9.54844 9.56246 9.56042C9.51894 9.56319 9.4791 9.56534 9.44294 9.56718C8.81685 9.54844 8.22203 9.40099 7.6845 9.15062C7.37897 9.00839 7.09213 8.83267 6.82827 8.62869C6.7587 8.57462 6.69036 8.5184 6.62417 8.46095C6.40414 8.26895 6.2028 8.05606 6.02321 7.82536C5.46117 7.10344 5.11304 6.20672 5.07474 5.23166C5.07382 5.21477 5.0732 5.19787 5.0729 5.18067C5.07228 5.17452 5.07228 5.16807 5.07228 5.16193C5.07218 5.15625 5.07204 5.15057 5.07191 5.1449C5.07163 5.13371 5.07136 5.12256 5.07136 5.11155C5.07106 5.09127 5.07106 5.0713 5.07106 5.05103C5.07106 5.03075 5.07106 5.01079 5.07136 4.99051C5.07167 4.97116 5.07198 4.9518 5.07259 4.93245V4.92753C5.0729 4.90849 5.07351 4.88944 5.07443 4.87039C5.07504 4.85442 5.07566 4.83875 5.07657 4.82309C5.17954 2.82966 6.6257 1.16402 8.591 0.592935C8.39088 0.576654 8.18801 0.568359 7.98299 0.568359C4.40758 0.568359 1.46991 3.10921 1.13955 6.35725C1.12055 6.54372 1.11044 6.73264 1.1089 6.92403V6.9655C1.1089 10.0519 3.45788 12.6278 6.5828 13.229C6.25551 13.2398 5.92239 13.2689 5.5859 13.3172C5.35514 13.3504 5.12224 13.3928 4.88872 13.4444C3.54399 13.7414 2.35801 14.3076 1.43129 15.0326C1.39575 15.0599 1.3602 15.0882 1.32618 15.1161C1.35407 15.1512 1.38349 15.1862 1.41229 15.2203C2.33687 16.3041 3.73951 17.2097 5.42624 17.6957C6.2696 17.9387 7.12063 18.0597 7.94009 18.0597C8.20395 18.0597 8.46412 18.0475 8.72032 18.022L8.73963 18.0201C8.48098 18.2545 8.1877 18.5255 7.86868 18.828C7.86822 18.8285 7.86769 18.829 7.86715 18.8294C7.86661 18.8299 7.86608 18.8304 7.86562 18.8308C6.98426 19.6673 5.90676 20.7465 4.82681 21.9698C4.64846 22.1716 4.46734 22.3811 4.28439 22.5968H4.28378C4.27755 22.6042 4.27128 22.6116 4.26498 22.6191C4.23596 22.6535 4.20634 22.6886 4.17713 22.724C3.72143 23.2662 3.25838 23.8477 2.80912 24.4569C2.80728 24.459 2.80574 24.4612 2.80421 24.4633C2.08037 25.4451 1.39268 26.4995 0.830337 27.578C0.228767 28.7915 -0.0516396 30.1343 0.00781264 31.481C0.0130224 31.5996 0.0219096 31.7182 0.0338613 31.8365C0.0352376 31.8508 0.0368612 31.8652 0.0385099 31.8797L0.039071 31.8847C0.0412162 31.9013 0.0430549 31.9179 0.0448937 31.9345L0.045813 31.9418L0.0494905 31.9719C0.0792166 32.2103 0.12212 32.4472 0.177589 32.6809C0.381687 33.5454 0.62869 34.3487 0.91829 35.0894C0.971 35.2049 1.02647 35.3204 1.08439 35.4362C1.10431 35.4774 1.12484 35.5183 1.1466 35.5594C1.15482 35.5568 1.16308 35.5541 1.17138 35.5514C1.20635 35.5401 1.24196 35.5286 1.27837 35.5176C2.12664 35.2498 3.32764 34.972 4.88136 34.8529C4.03279 29.217 7.6177 23.0564 14.4798 18.2625C15.3103 17.6822 16.1892 17.1219 17.1138 16.5849C16.1589 16.6285 15.002 16.2172 13.6487 14.9699C13.6487 14.9699 17.8288 15.0796 20.4011 13.8268L20.0953 14.358C20.0953 14.3586 20.0947 14.3595 20.0947 14.3601C20.0086 14.4988 19.9402 14.6188 19.8684 14.7447C19.7889 14.8841 19.7053 15.0308 19.5887 15.2184C19.0944 16.046 18.4913 17.2269 18.3206 18.2935C18.2967 18.2625 18.2653 18.2256 18.2291 18.183C18.0128 17.9286 17.6225 17.4694 17.5968 16.8245C17.0329 17.3627 16.2625 18.1236 15.4099 19.0575C12.0852 22.6994 7.51289 28.973 9.07703 34.9293C10.9366 35.1223 12.8936 35.5192 14.9239 36.1148C15.5693 36.3041 16.222 36.5136 16.8818 36.7431C20.0748 37.8533 23.4351 39.4329 26.8992 41.4537L27.21 41.6352L26.9872 41.3526C26.4512 40.6715 24.6333 38.1921 23.7421 34.8842C22.789 31.3443 23.185 28.0742 24.9195 25.1628L25.0185 24.9972L24.8377 25.0636C22.2172 26.027 20.3638 27.5046 19.0613 29.0197C18.3277 29.8731 17.769 30.7385 17.3464 31.5308C17.5162 30.5729 17.8585 28.84 18.9489 27.1295C19.0678 26.9431 19.1956 26.7569 19.3328 26.572C21.1452 24.1343 24.0244 22.7488 27.8888 22.4524C27.9516 22.4558 28.0279 22.4558 28.1161 22.4558H28.1172C28.7047 22.4564 29.7968 22.4575 30.907 23.2978L30.9481 23.3285ZM25.2836 11.7925C26.5824 10.7692 27.3929 9.31522 27.3929 7.70242L27.3932 7.70273C27.3932 4.8857 24.9192 2.55282 21.6932 2.151C22.8301 2.98536 23.569 4.33335 23.569 5.8543C23.569 7.60258 22.5932 9.12292 21.1578 9.89583C22.4087 10.494 23.9153 11.2011 25.0823 11.6988C25.1491 11.7307 25.2168 11.7624 25.2836 11.7925Z" fill="white"/>
<path d="M45.0037 22.4604V7.7339H51.6937C53.2926 7.7339 54.7021 8.04246 55.9223 8.65957C57.1425 9.26266 58.0963 10.1112 58.7835 11.2052C59.4707 12.2991 59.8144 13.5965 59.8144 15.0972C59.8144 16.5838 59.4707 17.8812 58.7835 18.9892C58.0963 20.0832 57.1425 20.9387 55.9223 21.5558C54.7021 22.1589 53.2926 22.4604 51.6937 22.4604H45.0037ZM48.4118 19.6624H51.5254C52.5072 19.6624 53.3557 19.4801 54.071 19.1154C54.8003 18.7367 55.3613 18.2038 55.754 17.5165C56.1608 16.8293 56.3641 16.0228 56.3641 15.0972C56.3641 14.1575 56.1608 13.351 55.754 12.6778C55.3613 11.9906 54.8003 11.4646 54.071 11.1C53.3557 10.7213 52.5072 10.5319 51.5254 10.5319H48.4118V19.6624Z" fill="white"/>
<path d="M62.8054 22.4604V7.7339H66.2135V22.4604H62.8054Z" fill="white"/>
<path d="M77.24 22.7129C76.0759 22.7129 75.003 22.5306 74.0212 22.1659C73.0534 21.7872 72.2049 21.2543 71.4756 20.567C70.7603 19.8798 70.1993 19.0733 69.7926 18.1477C69.3999 17.222 69.2035 16.2052 69.2035 15.0972C69.2035 13.9892 69.3999 12.9723 69.7926 12.0467C70.1993 11.121 70.7673 10.3146 71.4966 9.62731C72.226 8.94007 73.0815 8.41413 74.0633 8.04947C75.045 7.67079 76.125 7.48145 77.3031 7.48145C78.6075 7.48145 79.7786 7.69884 80.8164 8.13362C81.8683 8.5684 82.7519 9.19954 83.4672 10.027L81.2793 12.0467C80.7463 11.4857 80.1643 11.0719 79.5331 10.8054C78.902 10.5249 78.2148 10.3847 77.4714 10.3847C76.7561 10.3847 76.1039 10.4969 75.5149 10.7213C74.9258 10.9457 74.4139 11.2683 73.9791 11.689C73.5584 12.1098 73.2288 12.6077 72.9903 13.1827C72.7659 13.7578 72.6537 14.3959 72.6537 15.0972C72.6537 15.7844 72.7659 16.4155 72.9903 16.9906C73.2288 17.5656 73.5584 18.0705 73.9791 18.5053C74.4139 18.9261 74.9188 19.2487 75.4938 19.4731C76.0829 19.6975 76.7281 19.8097 77.4293 19.8097C78.1025 19.8097 78.7547 19.7045 79.3859 19.4941C80.031 19.2697 80.6551 18.898 81.2582 18.3791L83.1937 20.8405C82.3943 21.4436 81.4616 21.9064 80.3957 22.229C79.3438 22.5516 78.2919 22.7129 77.24 22.7129ZM80.0801 20.3987V14.8658H83.1937V20.8405L80.0801 20.3987Z" fill="white"/>
<path d="M86.7804 22.4604V7.7339H90.1885V22.4604H86.7804Z" fill="white"/>
<path d="M97.1547 22.4604V10.5109H92.4422V7.7339H105.275V10.5109H100.563V22.4604H97.1547Z" fill="white"/>
<path d="M104.855 22.4604L111.419 7.7339H114.785L121.369 22.4604H117.793L112.407 9.45901H113.754L108.347 22.4604H104.855ZM108.137 19.3048L109.041 16.7171H116.615L117.541 19.3048H108.137Z" fill="white"/>
<path d="M123.318 22.4604V7.7339H126.726V19.6834H134.111V22.4604H123.318Z" fill="white"/>
<path d="M48.7791 29.3983H49.5154V34.5526H48.7791V29.3983ZM45.819 34.5526H45.0827V29.3983H45.819V34.5526ZM48.8453 32.2552H45.7454V31.6146H48.8453V32.2552Z" fill="white"/>
<path d="M55.9989 31.622H58.6497V32.2478H55.9989V31.622ZM56.0652 33.9119H59.0694V34.5526H55.3289V29.3983H58.9663V30.0389H56.0652V33.9119Z" fill="white"/>
<path d="M64.5324 34.5526V29.3983H66.7045C67.2543 29.3983 67.7379 29.5063 68.1551 29.7222C68.5773 29.9382 68.9037 30.2401 69.1344 30.6279C69.37 31.0157 69.4879 31.4649 69.4879 31.9754C69.4879 32.4859 69.37 32.9351 69.1344 33.3229C68.9037 33.7107 68.5773 34.0126 68.1551 34.2286C67.7379 34.4446 67.2543 34.5526 66.7045 34.5526H64.5324ZM65.2687 33.9119H66.6604C67.0874 33.9119 67.4556 33.831 67.7649 33.669C68.079 33.507 68.322 33.2812 68.4938 32.9915C68.6656 32.697 68.7515 32.3583 68.7515 31.9754C68.7515 31.5876 68.6656 31.2489 68.4938 30.9593C68.322 30.6697 68.079 30.4438 67.7649 30.2819C67.4556 30.1199 67.0874 30.0389 66.6604 30.0389H65.2687V33.9119Z" fill="white"/>
<path d="M77.2132 34.6115C76.8156 34.6115 76.4499 34.5476 76.1161 34.42C75.7823 34.2875 75.4926 34.1034 75.2472 33.8678C75.0018 33.6272 74.8103 33.3474 74.6729 33.0284C74.5354 32.7093 74.4667 32.3583 74.4667 31.9754C74.4667 31.5925 74.5354 31.2415 74.6729 30.9225C74.8103 30.6034 75.0018 30.326 75.2472 30.0904C75.4976 29.8499 75.7896 29.6658 76.1234 29.5382C76.4572 29.4056 76.8254 29.3394 77.2279 29.3394C77.6354 29.3394 78.0084 29.4056 78.3471 29.5382C78.6858 29.6707 78.973 29.8695 79.2086 30.1346L78.7521 30.5911C78.541 30.3849 78.3103 30.2352 78.06 30.142C77.8145 30.0438 77.547 29.9947 77.2574 29.9947C76.9628 29.9947 76.688 30.0438 76.4327 30.142C76.1823 30.2401 75.9639 30.3776 75.7774 30.5543C75.5957 30.731 75.4534 30.9421 75.3503 31.1875C75.2521 31.4281 75.203 31.6907 75.203 31.9754C75.203 32.2552 75.2521 32.5178 75.3503 32.7633C75.4534 33.0038 75.5957 33.2149 75.7774 33.3965C75.9639 33.5732 76.1823 33.7107 76.4327 33.8089C76.683 33.907 76.9555 33.9561 77.25 33.9561C77.5249 33.9561 77.7875 33.9144 78.0379 33.831C78.2931 33.7426 78.5288 33.5978 78.7448 33.3965L79.1645 33.9561C78.9092 34.1721 78.6098 34.3366 78.2661 34.4495C77.9274 34.5575 77.5765 34.6115 77.2132 34.6115ZM78.4576 33.8604V31.946H79.1645V33.9561L78.4576 33.8604Z" fill="white"/>
<path d="M85.515 31.622H88.1658V32.2478H85.515V31.622ZM85.5813 33.9119H88.5855V34.5526H84.8449V29.3983H88.4824V30.0389H85.5813V33.9119Z" fill="white"/>
<path d="M100.959 31.8355H103.617V32.4687H100.959V31.8355ZM101.033 34.5526H100.297V29.3983H103.934V30.0389H101.033V34.5526Z" fill="white"/>
<path d="M111.377 34.6115C110.699 34.6115 110.167 34.4176 109.779 34.0298C109.391 33.642 109.197 33.075 109.197 32.3288V29.3983H109.933V32.2994C109.933 32.8737 110.059 33.2934 110.309 33.5585C110.564 33.8236 110.923 33.9561 111.384 33.9561C111.85 33.9561 112.209 33.8236 112.459 33.5585C112.714 33.2934 112.842 32.8737 112.842 32.2994V29.3983H113.556V32.3288C113.556 33.075 113.362 33.642 112.974 34.0298C112.592 34.4176 112.059 34.6115 111.377 34.6115Z" fill="white"/>
<path d="M119.336 34.5526V29.3983H119.94L123.349 33.6321H123.033V29.3983H123.769V34.5526H123.165L119.756 30.3187H120.073V34.5526H119.336Z" fill="white"/>
<path d="M129.583 34.5526V29.3983H131.755C132.305 29.3983 132.788 29.5063 133.205 29.7222C133.627 29.9382 133.954 30.2401 134.185 30.6279C134.42 31.0157 134.538 31.4649 134.538 31.9754C134.538 32.4859 134.42 32.9351 134.185 33.3229C133.954 33.7107 133.627 34.0126 133.205 34.2286C132.788 34.4446 132.305 34.5526 131.755 34.5526H129.583ZM130.319 33.9119H131.711C132.138 33.9119 132.506 33.831 132.815 33.669C133.129 33.507 133.372 33.2812 133.544 32.9915C133.716 32.697 133.802 32.3583 133.802 31.9754C133.802 31.5876 133.716 31.2489 133.544 30.9593C133.372 30.6697 133.129 30.4438 132.815 30.2819C132.506 30.1199 132.138 30.0389 131.711 30.0389H130.319V33.9119Z" fill="white"/>
</svg>
